<svg version="1.1" viewBox="0.0 0.0 960.0 720.0" fill="none" stroke="none" stroke-linecap="square" stroke-miterlimit="10" xmlns:xlink="http://www.w3.org/1999/xlink" xmlns="http://www.w3.org/2000/svg"><clipPath id="p.0"><path d="m0 0l960.0 0l0 720.0l-960.0 0l0 -720.0z" clip-rule="nonzero"/></clipPath><g clip-path="url(#p.0)"><path fill="#000000" fill-opacity="0.0" d="m0 0l960.0 0l0 720.0l-960.0 0z" fill-rule="evenodd"/><path fill="#5b0f00" d="m49.0 50.0l0 0c0 -6.6274185 5.3725815 -12.0 12.0 -12.0l0 0c3.1825943 0 6.234848 1.2642822 8.485283 3.514717c2.2504349 2.2504387 3.514717 5.302685 3.514717 8.485283l0 0c0 6.6274185 -5.3725815 12.0 -12.0 12.0l0 0c-6.6274185 0 -12.0 -5.3725815 -12.0 -12.0z" fill-rule="evenodd"/><path stroke="#000000" stroke-width="1.0" stroke-linejoin="round" stroke-linecap="butt" d="m49.0 50.0l0 0c0 -6.6274185 5.3725815 -12.0 12.0 -12.0l0 0c3.1825943 0 6.234848 1.2642822 8.485283 3.514717c2.2504349 2.2504387 3.514717 5.302685 3.514717 8.485283l0 0c0 6.6274185 -5.3725815 12.0 -12.0 12.0l0 0c-6.6274185 0 -12.0 -5.3725815 -12.0 -12.0z" fill-rule="evenodd"/></g></svg>